<svg xmlns="http://www.w3.org/2000/svg" xmlns:xlink="http://www.w3.org/1999/xlink" width="50" zoomAndPan="magnify" viewBox="0 0 37.5 37.499999" height="50" preserveAspectRatio="xMidYMid meet" version="1.0"><defs><clipPath id="ca7281a0a8"><path d="M 1.3125 1.3125 L 36.5625 1.3125 L 36.5625 36.5625 L 1.3125 36.5625 Z M 1.3125 1.3125 " clip-rule="nonzero"/></clipPath></defs><g clip-path="url(#ca7281a0a8)"><path fill="#3b82f6" d="M 18.9375 1.3125 C 9.21875 1.3125 1.3125 9.21875 1.3125 18.9375 C 1.3125 28.65625 9.21875 36.5625 18.9375 36.5625 C 28.65625 36.5625 36.5625 28.65625 36.5625 18.9375 C 36.5625 9.21875 28.65625 1.3125 18.9375 1.3125 Z M 9.039062 30.746094 C 9.203125 25.421875 13.574219 21.140625 18.9375 21.140625 C 24.300781 21.140625 28.671875 25.421875 28.835938 30.746094 C 26.15625 32.996094 22.703125 34.359375 18.9375 34.359375 C 15.171875 34.359375 11.71875 32.996094 9.039062 30.746094 Z M 13.429688 13.429688 C 13.429688 10.394531 15.902344 7.921875 18.9375 7.921875 C 21.972656 7.921875 24.445312 10.394531 24.445312 13.429688 C 24.445312 16.464844 21.972656 18.9375 18.9375 18.9375 C 15.902344 18.9375 13.429688 16.464844 13.429688 13.429688 Z M 30.828125 28.746094 C 30.03125 24.628906 27.140625 21.257812 23.316406 19.769531 C 25.328125 18.375 26.648438 16.054688 26.648438 13.429688 C 26.648438 9.179688 23.1875 5.71875 18.9375 5.71875 C 14.6875 5.71875 11.226562 9.179688 11.226562 13.429688 C 11.226562 16.054688 12.546875 18.375 14.558594 19.769531 C 10.734375 21.257812 7.84375 24.628906 7.046875 28.746094 C 4.84375 26.078125 3.515625 22.660156 3.515625 18.9375 C 3.515625 10.433594 10.433594 3.515625 18.9375 3.515625 C 27.441406 3.515625 34.359375 10.433594 34.359375 18.9375 C 34.359375 22.660156 33.03125 26.078125 30.828125 28.746094 Z M 30.828125 28.746094 " fill-opacity="1" fill-rule="nonzero"/></g></svg>