<svg xmlns="http://www.w3.org/2000/svg" xmlns:xlink="http://www.w3.org/1999/xlink" width="500" zoomAndPan="magnify" viewBox="0 0 375 374.999991" height="500" preserveAspectRatio="xMidYMid meet" version="1.0"><defs><clipPath id="f1eb533b56"><path d="M 15.78125 24 L 183 24 L 183 351 L 15.78125 351 Z M 15.78125 24 " clip-rule="nonzero"/></clipPath><clipPath id="4674bf3459"><path d="M 192 24 L 359.28125 24 L 359.28125 351 L 192 351 Z M 192 24 " clip-rule="nonzero"/></clipPath></defs><g clip-path="url(#f1eb533b56)"><path fill="#3b81f6" d="M 137.742188 24.171875 C 137.238281 24.171875 136.757812 24.226562 136.261719 24.242188 C 136.140625 24.238281 136.035156 24.171875 135.90625 24.171875 C 112.96875 24.171875 94.175781 42.386719 92.605469 65.363281 C 89.902344 64.835938 87.175781 64.550781 84.441406 64.550781 C 59.804688 64.550781 39.761719 84.976562 39.761719 110.085938 C 39.761719 121.566406 43.886719 132.273438 51.175781 140.488281 C 48.378906 141.089844 45.691406 141.988281 43.113281 143.101562 C 27.117188 149.640625 15.777344 165.570312 15.777344 184.179688 C 15.777344 184.234375 15.808594 184.28125 15.808594 184.328125 C 15.808594 184.566406 15.777344 184.796875 15.777344 185.035156 C 15.777344 206.816406 30.855469 225.066406 50.9375 229.519531 C 43.800781 237.714844 39.757812 248.332031 39.757812 259.636719 C 39.757812 284.734375 59.800781 305.160156 84.4375 305.160156 C 87.355469 305.160156 90.238281 304.875 93.066406 304.3125 C 93.058594 304.628906 93.054688 304.960938 93.054688 305.308594 C 93.054688 330.417969 113.097656 350.84375 137.734375 350.84375 C 162.375 350.84375 182.421875 330.417969 182.421875 305.308594 L 182.421875 72.6875 C 182.425781 46.84375 161.546875 24.171875 137.742188 24.171875 Z M 172.203125 305.308594 C 172.203125 324.785156 156.746094 340.632812 137.742188 340.632812 C 118.734375 340.632812 103.285156 324.789062 103.285156 305.308594 C 103.285156 302.96875 103.445312 302.476562 104.058594 300.652344 C 104.265625 300.054688 104.496094 299.339844 104.75 298.515625 C 117.996094 290.921875 126.976562 276.476562 126.976562 259.910156 C 126.976562 257.085938 124.6875 254.804688 121.863281 254.804688 C 119.042969 254.804688 116.753906 257.085938 116.753906 259.910156 C 116.753906 278.695312 101.847656 293.980469 83.527344 293.980469 C 65.207031 293.980469 50.300781 278.695312 50.300781 259.910156 C 50.300781 259.464844 50.152344 259.066406 50.046875 258.65625 C 50.363281 246.746094 56.382812 235.933594 66.367188 229.601562 C 68.355469 228.347656 69.226562 225.886719 68.46875 223.660156 C 67.710938 221.433594 65.542969 219.949219 63.1875 220.210938 C 62.289062 220.285156 61.378906 220.347656 60.457031 220.347656 C 41.457031 220.347656 26 204.503906 26 185.03125 C 26 170.511719 34.597656 158.023438 46.839844 152.59375 C 50.675781 151.003906 54.847656 150.113281 59.226562 150.113281 C 77.546875 150.113281 92.453125 165.394531 92.453125 184.175781 C 92.453125 186.996094 94.742188 189.277344 97.5625 189.277344 C 100.386719 189.277344 102.675781 186.996094 102.675781 184.175781 C 102.675781 162.539062 87.34375 144.503906 67.175781 140.679688 C 67.066406 140.605469 67 140.5 66.890625 140.429688 C 56.304688 133.984375 49.980469 122.640625 49.980469 110.082031 C 49.980469 90.605469 65.4375 74.753906 84.4375 74.753906 C 87.355469 74.753906 90.265625 75.285156 93.136719 76.074219 C 96.699219 96.851562 114.5 112.714844 135.902344 112.714844 C 138.722656 112.714844 141.011719 110.433594 141.011719 107.609375 C 141.011719 104.789062 138.722656 102.507812 135.902344 102.507812 C 119.246094 102.507812 105.457031 89.871094 103.074219 73.46875 C 103.285156 72.800781 103.40625 72.101562 103.359375 71.421875 C 103.324219 70.855469 103.277344 70.277344 103.277344 69.703125 C 103.277344 50.226562 118.734375 34.375 137.734375 34.375 C 156.089844 34.375 172.199219 52.277344 172.199219 72.683594 L 172.199219 305.308594 Z M 172.203125 305.308594 " fill-opacity="1" fill-rule="nonzero"/></g><g clip-path="url(#4674bf3459)"><path fill="#3b81f6" d="M 359.355469 184.179688 C 359.355469 165.570312 348.015625 149.640625 332.019531 143.101562 C 329.441406 141.988281 326.753906 141.089844 323.957031 140.488281 C 331.25 132.273438 335.371094 121.566406 335.371094 110.085938 C 335.371094 84.976562 315.328125 64.550781 290.691406 64.550781 C 287.734375 64.550781 284.792969 64.855469 281.882812 65.464844 C 279.777344 42.339844 260.628906 24.171875 237.390625 24.171875 C 213.585938 24.171875 192.707031 46.84375 192.707031 72.6875 L 192.707031 305.308594 C 192.707031 330.417969 212.75 350.84375 237.390625 350.84375 C 262.03125 350.84375 282.070312 330.417969 282.070312 305.308594 C 282.070312 304.960938 282.066406 304.625 282.0625 304.3125 C 284.890625 304.875 287.773438 305.160156 290.691406 305.160156 C 315.328125 305.160156 335.371094 284.734375 335.371094 259.636719 C 335.371094 248.328125 331.332031 237.714844 324.191406 229.519531 C 344.269531 225.066406 359.347656 206.816406 359.347656 185.035156 C 359.347656 184.796875 359.324219 184.566406 359.320312 184.328125 C 359.324219 184.277344 359.355469 184.230469 359.355469 184.179688 Z M 237.398438 305.121094 C 231.734375 305.121094 227.121094 300.519531 227.121094 294.863281 C 227.121094 289.207031 231.726562 284.601562 237.398438 284.601562 C 243.058594 284.601562 247.664062 289.203125 247.664062 294.863281 C 247.664062 300.519531 243.054688 305.121094 237.398438 305.121094 Z M 290.894531 267.074219 C 285.230469 267.074219 280.621094 262.472656 280.621094 256.816406 C 280.621094 251.160156 285.226562 246.554688 290.894531 246.554688 C 296.558594 246.554688 301.164062 251.15625 301.164062 256.816406 C 301.167969 262.46875 296.558594 267.074219 290.894531 267.074219 Z M 314.675781 220.347656 C 313.753906 220.347656 312.847656 220.28125 311.945312 220.210938 C 309.597656 219.980469 307.421875 221.429688 306.664062 223.660156 C 305.90625 225.890625 306.777344 228.347656 308.765625 229.601562 C 319.023438 236.105469 325.148438 247.335938 325.148438 259.636719 C 325.148438 277.246094 312.488281 291.851562 296.007812 294.484375 L 296.007812 276.558594 C 304.828125 274.277344 311.386719 266.328125 311.386719 256.816406 C 311.386719 245.53125 302.195312 236.347656 290.894531 236.347656 C 279.59375 236.347656 270.398438 245.53125 270.398438 256.816406 C 270.398438 266.328125 276.960938 274.277344 285.785156 276.558594 L 285.785156 294.546875 C 282.859375 294.117188 279.996094 293.351562 277.246094 292.164062 C 275.421875 291.382812 273.300781 291.714844 271.820312 293.035156 C 270.332031 294.359375 269.75 296.421875 270.324219 298.320312 C 270.605469 299.253906 270.855469 299.996094 271.070312 300.648438 C 271.683594 302.46875 271.847656 302.964844 271.847656 305.304688 C 271.847656 322.996094 259.082031 337.652344 242.503906 340.195312 L 242.503906 314.597656 C 251.324219 312.316406 257.890625 304.375 257.890625 294.859375 C 257.890625 283.570312 248.699219 274.386719 237.398438 274.386719 C 226.09375 274.386719 216.898438 283.570312 216.898438 294.859375 C 216.898438 304.371094 223.460938 312.316406 232.28125 314.597656 L 232.28125 340.195312 C 215.699219 337.652344 202.929688 322.996094 202.929688 305.304688 L 202.929688 200.332031 L 217.621094 200.332031 C 219.90625 209.140625 227.867188 215.695312 237.398438 215.695312 C 248.699219 215.695312 257.890625 206.519531 257.890625 195.230469 C 257.890625 183.945312 248.699219 174.761719 237.398438 174.761719 C 227.875 174.761719 219.914062 181.308594 217.625 190.121094 L 202.929688 190.121094 L 202.929688 120.644531 L 265.941406 120.644531 C 268.230469 129.453125 276.183594 136.003906 285.710938 136.003906 C 297.011719 136.003906 306.203125 126.824219 306.203125 115.539062 C 306.203125 104.25 297.011719 95.066406 285.710938 95.066406 C 276.183594 95.066406 268.226562 101.621094 265.941406 110.433594 L 249.21875 110.433594 L 249.21875 90.105469 C 258.042969 87.824219 264.605469 79.882812 264.605469 70.367188 C 264.605469 59.078125 255.414062 49.894531 244.113281 49.894531 C 232.8125 49.894531 223.617188 59.078125 223.617188 70.367188 C 223.617188 79.875 230.179688 87.824219 238.996094 90.105469 L 238.996094 110.433594 L 202.929688 110.433594 L 202.929688 72.683594 C 202.929688 52.277344 219.03125 34.375 237.390625 34.375 C 256.390625 34.375 271.847656 50.222656 271.847656 69.703125 C 271.847656 70.277344 271.804688 70.855469 271.730469 71.914062 C 271.617188 73.648438 272.394531 75.324219 273.796875 76.355469 C 275.195312 77.386719 277.023438 77.640625 278.652344 77.015625 C 282.589844 75.515625 286.636719 74.761719 290.683594 74.761719 C 309.683594 74.761719 325.144531 90.605469 325.144531 110.085938 C 325.144531 122.644531 318.824219 133.992188 308.234375 140.433594 C 308.125 140.507812 308.054688 140.609375 307.945312 140.6875 C 287.777344 144.503906 272.445312 162.539062 272.445312 184.179688 C 272.445312 187.003906 274.738281 189.285156 277.558594 189.285156 C 280.378906 189.285156 282.671875 187.003906 282.671875 184.179688 C 282.671875 165.398438 297.574219 150.121094 315.894531 150.121094 C 320.277344 150.121094 324.449219 151.011719 328.28125 152.59375 C 340.523438 158.023438 349.121094 170.519531 349.121094 185.03125 C 349.132812 204.507812 333.675781 220.347656 314.675781 220.347656 Z M 227.121094 195.230469 C 227.121094 189.574219 231.726562 184.96875 237.398438 184.96875 C 243.058594 184.96875 247.664062 189.570312 247.664062 195.230469 C 247.664062 200.882812 243.058594 205.488281 237.398438 205.488281 C 231.726562 205.480469 227.121094 200.882812 227.121094 195.230469 Z M 244.113281 80.617188 C 238.449219 80.617188 233.839844 76.015625 233.839844 70.359375 C 233.839844 64.703125 238.445312 60.097656 244.113281 60.097656 C 249.777344 60.097656 254.382812 64.699219 254.382812 70.359375 C 254.382812 76.015625 249.773438 80.617188 244.113281 80.617188 Z M 275.441406 115.539062 C 275.441406 109.882812 280.046875 105.277344 285.71875 105.277344 C 291.378906 105.277344 295.984375 109.878906 295.984375 115.539062 C 295.984375 121.191406 291.378906 125.792969 285.71875 125.792969 C 280.046875 125.792969 275.441406 121.195312 275.441406 115.539062 Z M 275.441406 115.539062 " fill-opacity="1" fill-rule="nonzero"/></g></svg>