<svg width="614" height="590" viewBox="0 0 614 590" fill="none" xmlns="http://www.w3.org/2000/svg">
<g id="landing_image 1">
<path id="head-brain" d="M392.082 412.732H236.785L159.133 283.534L236.785 154.336H392.082L469.734 283.534L392.082 412.732ZM240.392 406.721H388.468L462.507 283.534L388.468 160.347H240.392L166.354 283.534L240.392 406.721Z" fill="#3B82F6"/>
<path id="section3" d="M527.284 288.782C527.284 288.782 527.226 288.782 527.194 288.782L464.208 286.035C463.172 285.986 462.366 285.144 462.417 284.155C462.468 283.159 463.344 282.385 464.374 282.434L527.367 285.181C528.403 285.23 529.202 286.072 529.151 287.062C529.113 288.033 528.275 288.782 527.277 288.782H527.284Z" fill="#3B82F6"/>
<path id="section3_2" d="M526.676 293.054C530.181 293.207 533.155 290.602 533.308 287.234C533.468 283.872 530.757 281.014 527.252 280.867C523.747 280.713 520.773 283.319 520.619 286.681C520.459 290.048 523.171 292.906 526.676 293.054Z" fill="#3B82F6"/>
<path id="section3_3" d="M551.262 301.818H551.23L455.625 300.337C454.589 300.318 453.763 299.501 453.783 298.505C453.802 297.516 454.633 296.729 455.657 296.729H455.689L551.294 298.21C552.336 298.229 553.161 299.046 553.142 300.042C553.123 301.025 552.291 301.818 551.262 301.818Z" fill="#3B82F6"/>
<path id="section3_4" d="M555.734 294.693C556.15 295.393 556.412 296.143 556.521 296.948C556.629 297.753 556.572 298.54 556.348 299.321C556.131 300.107 555.76 300.814 555.248 301.453C554.73 302.098 554.109 302.615 553.38 303.02C552.645 303.42 551.864 303.672 551.027 303.776C550.195 303.881 549.37 303.825 548.558 303.616C547.746 303.401 547.004 303.051 546.338 302.553C545.673 302.062 545.13 301.459 544.708 300.759C544.292 300.058 544.03 299.302 543.921 298.503C543.812 297.698 543.87 296.905 544.087 296.125C544.311 295.344 544.676 294.637 545.194 293.992C545.712 293.353 546.332 292.831 547.061 292.431C547.79 292.025 548.577 291.773 549.415 291.675C550.246 291.571 551.071 291.626 551.884 291.835C552.696 292.05 553.438 292.4 554.103 292.898C554.768 293.39 555.312 293.992 555.734 294.693Z" fill="#3B82F6"/>
<path id="section3_5" d="M525.346 317.981C525.346 317.981 525.314 317.981 525.295 317.981L449.849 315.818C448.813 315.787 448.001 314.958 448.033 313.956C448.065 312.985 448.896 312.21 449.907 312.21C449.926 312.21 449.945 312.21 449.964 312.21L525.403 314.374C526.446 314.404 527.258 315.234 527.226 316.23C527.194 317.207 526.363 317.981 525.346 317.981Z" fill="#3B82F6"/>
<path id="section3_6" d="M524.84 322.265C528.345 322.369 531.275 319.721 531.383 316.353C531.486 312.985 528.729 310.17 525.224 310.072C521.719 309.967 518.79 312.616 518.681 315.984C518.579 319.352 521.335 322.167 524.84 322.265Z" fill="#3B82F6"/>
<path id="section3_7" d="M529.306 287.754C528.737 287.754 528.168 287.502 527.803 287.029C527.183 286.23 527.349 285.099 528.181 284.503L572.83 252.495C573.662 251.899 574.838 252.065 575.459 252.864C576.073 253.663 575.906 254.794 575.075 255.39L530.432 287.398C530.093 287.637 529.697 287.754 529.306 287.754Z" fill="#3B82F6"/>
<g id="section3_8">
<mask id="mask0_1_104" style="mask-type:luminance" maskUnits="userSpaceOnUse" x="566" y="247" width="15" height="15">
<g id="9eb9e76313">
<path id="Vector" d="M566.517 247.013H580.882V261.173H566.517V247.013Z" fill="white"/>
</g>
</mask>
<g mask="url(#mask0_1_104)">
<g id="Group">
<path id="Vector_2" d="M577.499 259.022C580.307 257.006 580.889 253.184 578.785 250.48C576.687 247.775 572.709 247.216 569.894 249.238C567.08 251.254 566.498 255.077 568.602 257.781C570.7 260.479 574.678 261.038 577.499 259.022Z" fill="#3B82F6"/>
</g>
</g>
</g>
<path id="section3_9" d="M553.016 299.917C552.453 299.917 551.896 299.677 551.525 299.216C550.892 298.429 551.046 297.292 551.864 296.684L568.18 284.577C568.999 283.968 570.182 284.116 570.815 284.902C571.442 285.689 571.295 286.826 570.476 287.428L554.161 299.542C553.815 299.794 553.412 299.917 553.016 299.917Z" fill="#3B82F6"/>
<path id="section3_10" d="M572.964 291.017C575.747 288.959 576.252 285.13 574.109 282.462C571.967 279.789 567.976 279.304 565.2 281.362C562.418 283.421 561.912 287.25 564.055 289.917C566.191 292.591 570.189 293.076 572.964 291.017Z" fill="#3B82F6"/>
<path id="section3_11" d="M565.468 333.995C565.187 333.995 564.899 333.94 564.631 333.805L526.313 315.398C525.386 314.956 525.008 313.874 525.475 312.977C525.936 312.085 527.061 311.723 527.995 312.171L566.313 330.578C567.24 331.021 567.617 332.102 567.151 333C566.818 333.633 566.159 333.995 565.468 333.995Z" fill="#3B82F6"/>
<path id="section3_12" d="M562.347 337.517C565.481 339.023 569.3 337.8 570.867 334.788C572.44 331.777 571.161 328.108 568.027 326.596C564.893 325.09 561.075 326.313 559.501 329.324C557.934 332.336 559.207 336.005 562.347 337.517Z" fill="#3B82F6"/>
<path id="section2" d="M392.21 160.986H390.477C389.434 160.986 388.596 160.181 388.596 159.179C388.596 158.183 389.434 157.378 390.477 157.378H390.656L458.995 91.7285C459.724 91.0279 460.914 91.0279 461.65 91.7285C462.379 92.4353 462.379 93.5784 461.65 94.2791L392.216 160.98L392.21 160.986Z" fill="#3B82F6"/>
<path id="Vector_3" d="M464.585 97.5363C467.06 95.1579 467.06 91.2922 464.585 88.9014C462.104 86.523 458.081 86.523 455.599 88.9014C453.118 91.286 453.118 95.1518 455.599 97.5363C458.074 99.9148 462.097 99.9148 464.585 97.5363Z" fill="#3B82F6"/>
<path id="section2_2" d="M401.017 179.405C400.537 179.405 400.058 179.233 399.693 178.876C398.964 178.17 398.964 177.033 399.693 176.326L440.965 136.679C441.695 135.979 442.884 135.979 443.62 136.679C444.349 137.38 444.349 138.523 443.62 139.23L402.347 178.876C401.976 179.233 401.503 179.405 401.017 179.405Z" fill="#3B82F6"/>
<path id="section2_3" d="M446.562 142.481C449.037 140.102 449.037 136.237 446.562 133.846C444.08 131.461 440.057 131.467 437.576 133.846C435.088 136.231 435.094 140.096 437.576 142.481C440.051 144.865 444.074 144.859 446.562 142.481Z" fill="#3B82F6"/>
<path id="section2_4" d="M369.377 158.22C368.859 158.22 368.334 158.011 367.963 157.606C367.285 156.856 367.362 155.719 368.142 155.061L375.76 148.657L409.799 115.955C410.534 115.255 411.724 115.255 412.453 115.955C413.188 116.662 413.188 117.805 412.453 118.506L378.286 151.325L370.611 157.766C370.253 158.067 369.818 158.214 369.377 158.214V158.22Z" fill="#3B82F6"/>
<path id="section2_5" d="M415.395 121.763C417.87 119.385 417.87 115.519 415.395 113.134C412.913 110.744 408.89 110.75 406.409 113.134C403.921 115.513 403.927 119.379 406.409 121.763C408.884 124.154 412.913 124.148 415.395 121.763Z" fill="#3B82F6"/>
<path id="section2_6" d="M412.562 116.177C411.519 116.177 410.681 115.372 410.681 114.376V85.1279C410.681 84.1323 411.519 83.3272 412.562 83.3272C413.598 83.3272 414.436 84.1323 414.436 85.1279V114.376C414.436 115.372 413.598 116.177 412.562 116.177Z" fill="#3B82F6"/>
<path id="section2_7" d="M418.913 85.4352C418.913 82.0611 416.066 79.3324 412.562 79.3324C409.057 79.3324 406.21 82.0673 406.21 85.4352C406.21 88.8031 409.057 91.538 412.562 91.538C416.066 91.538 418.913 88.8031 418.913 85.4352Z" fill="#3B82F6"/>
<path id="Vector_4" d="M461.336 90.3396C460.294 90.3396 459.456 89.5345 459.456 88.5388V67.3234C459.456 66.3217 460.294 65.5166 461.336 65.5166C462.372 65.5166 463.21 66.3217 463.21 67.3234V88.5388C463.21 89.5345 462.372 90.3396 461.336 90.3396Z" fill="#3B82F6"/>
<path id="Vector_5" d="M467.687 67.6246C467.687 64.2505 464.841 61.5218 461.336 61.5218C457.831 61.5218 454.985 64.2567 454.985 67.6246C454.985 70.9863 457.831 73.7274 461.336 73.7274C464.841 73.7274 467.687 70.9863 467.687 67.6246Z" fill="#3B82F6"/>
<path id="section2_8" d="M455.049 148.928C454.569 148.928 454.09 148.75 453.725 148.393L444.138 139.187C443.409 138.48 443.409 137.343 444.138 136.636C444.867 135.936 446.057 135.936 446.792 136.636L456.379 145.849C457.109 146.549 457.109 147.692 456.379 148.393C456.008 148.75 455.535 148.928 455.049 148.928Z" fill="#3B82F6"/>
<path id="section2_9" d="M450.335 151.22C452.81 153.605 456.833 153.605 459.321 151.22C461.797 148.842 461.797 144.976 459.321 142.591C456.84 140.207 452.817 140.207 450.335 142.591C447.854 144.97 447.854 148.836 450.335 151.22Z" fill="#3B82F6"/>
<path id="section1" d="M299.394 159.136C298.358 159.136 297.52 158.331 297.52 157.335V83.911C297.52 82.9093 298.358 82.1042 299.394 82.1042C300.436 82.1042 301.274 82.9093 301.274 83.911V157.335C301.274 158.331 300.436 159.136 299.394 159.136Z" fill="#3B82F6"/>
<path id="section1_2" d="M305.745 84.2183C305.745 80.8504 302.899 78.1217 299.394 78.1217C295.889 78.1217 293.043 80.8566 293.043 84.2183C293.043 87.5862 295.889 90.3211 299.394 90.3211C302.899 90.3211 305.745 87.5862 305.745 84.2183Z" fill="#3B82F6"/>
<path id="section1_3" d="M282.144 158.22C281.102 158.22 280.264 157.415 280.264 156.413V112.477C280.264 111.481 281.102 110.67 282.144 110.67C283.18 110.67 284.018 111.481 284.018 112.477V156.413C284.018 157.415 283.18 158.22 282.144 158.22Z" fill="#3B82F6"/>
<path id="section1_4" d="M288.495 112.784C288.495 109.41 285.649 106.681 282.144 106.681C278.639 106.681 275.787 109.416 275.787 112.784C275.787 116.152 278.639 118.887 282.144 118.887C285.649 118.887 288.495 116.152 288.495 112.784Z" fill="#3B82F6"/>
<path id="section1_5" d="M313.778 157.298C312.735 157.298 311.898 156.493 311.898 155.498V72.6027L336.189 49.267C336.918 48.5663 338.108 48.5663 338.837 49.267C339.572 49.9737 339.572 51.1169 338.837 51.8175L315.652 74.09V155.498C315.652 156.493 314.814 157.298 313.778 157.298Z" fill="#3B82F6"/>
<g id="Clip path group">
<mask id="mask1_1_104" style="mask-type:luminance" maskUnits="userSpaceOnUse" x="329" y="44" width="16" height="14">
<g id="b6c5c2a44c">
<path id="Vector_6" d="M329.825 44H344.561V57.3488H329.825V44Z" fill="white"/>
</g>
</mask>
<g mask="url(#mask1_1_104)">
<g id="Group_2">
<path id="Vector_7" d="M341.779 55.0748C344.26 52.6963 344.26 48.8306 341.779 46.446C339.304 44.0614 335.281 44.0614 332.793 46.446C330.318 48.8245 330.318 52.6902 332.793 55.0748C335.274 57.4594 339.297 57.4594 341.779 55.0748Z" fill="#3B82F6"/>
</g>
</g>
</g>
<path id="section1_6" d="M298.754 81.1331C298.274 81.1331 297.795 80.9549 297.43 80.6046L278.486 62.4068C277.757 61.7 277.757 60.5569 278.486 59.8563C279.221 59.1495 280.411 59.1495 281.14 59.8563L300.084 78.0541C300.814 78.7547 300.814 79.8978 300.084 80.6046C299.713 80.9549 299.24 81.1331 298.754 81.1331Z" fill="#3B82F6"/>
<path id="section1_7" d="M284.53 57.0292C282.055 54.6507 278.032 54.6507 275.544 57.0292C273.068 59.4137 273.068 63.2733 275.544 65.6641C278.025 68.0425 282.048 68.0425 284.53 65.6641C287.011 63.2795 287.011 59.4199 284.53 57.0292Z" fill="#3B82F6"/>
<path id="section1_8" d="M279.931 111.494C279.451 111.494 278.972 111.321 278.607 110.965L266.244 99.0912C265.515 98.3906 265.515 97.2475 266.244 96.5469C266.98 95.8401 268.169 95.8401 268.898 96.5469L281.261 108.421C281.991 109.121 281.991 110.264 281.261 110.965C280.891 111.321 280.417 111.494 279.931 111.494Z" fill="#3B82F6"/>
<path id="section1_9" d="M272.288 93.7198C269.807 91.3413 265.784 91.3413 263.296 93.7198C260.82 96.0982 260.82 99.964 263.296 102.355C265.777 104.733 269.8 104.733 272.288 102.355C274.763 99.9701 274.763 96.1044 272.288 93.7198Z" fill="#3B82F6"/>
<path id="section7" d="M160.387 286.232H82.0376C81.0015 286.232 80.1637 285.427 80.1637 284.431C80.1637 283.429 81.0015 282.624 82.0376 282.624H160.393C161.429 282.624 162.267 283.429 162.267 284.431C162.267 285.427 161.429 286.232 160.393 286.232H160.387Z" fill="#3B82F6"/>
<path id="section7_2" d="M82.3511 278.328C78.8398 278.328 76 281.063 76 284.431C76 287.793 78.8461 290.534 82.3511 290.534C85.856 290.534 88.7021 287.793 88.7021 284.431C88.7021 281.063 85.856 278.328 82.3511 278.328Z" fill="#3B82F6"/>
<path id="section7_3" d="M169.015 301.885H99.5303C98.4941 301.885 97.6563 301.08 97.6563 300.085C97.6563 299.083 98.4941 298.278 99.5303 298.278H169.015C170.051 298.278 170.895 299.083 170.895 300.085C170.895 301.08 170.051 301.885 169.015 301.885Z" fill="#3B82F6"/>
<path id="section7_4" d="M99.8501 293.982C96.3387 293.982 93.499 296.717 93.499 300.085C93.499 303.452 96.3451 306.187 99.8501 306.187C103.355 306.187 106.201 303.452 106.201 300.085C106.201 296.717 103.355 293.982 99.8501 293.982Z" fill="#3B82F6"/>
<path id="section7_5" d="M169.974 271.5H95.4305C94.3944 271.5 93.5565 270.695 93.5565 269.693C93.5565 268.698 94.3944 267.893 95.4305 267.893H169.98C171.016 267.893 171.854 268.698 171.854 269.693C171.854 270.695 171.016 271.5 169.98 271.5H169.974Z" fill="#3B82F6"/>
<path id="section7_6" d="M95.7439 263.591C92.2326 263.591 89.3929 266.326 89.3929 269.693C89.3929 273.061 92.239 275.796 95.7439 275.796C99.2488 275.796 102.095 273.061 102.095 269.693C102.095 266.326 99.2488 263.591 95.7439 263.591Z" fill="#3B82F6"/>
<path id="section6" d="M169.667 423.751C169.181 423.751 168.701 423.579 168.337 423.223C167.607 422.516 167.607 421.379 168.337 420.672L216.58 374.326C217.316 373.626 218.506 373.626 219.235 374.326C219.97 375.033 219.97 376.176 219.235 376.877L170.991 423.223C170.62 423.579 170.147 423.751 169.667 423.751Z" fill="#3B82F6"/>
<path id="section6_2" d="M165.395 417.421C162.919 419.799 162.919 423.665 165.395 426.056C167.876 428.434 171.899 428.434 174.387 426.056C176.869 423.671 176.862 419.805 174.387 417.421C171.906 415.042 167.883 415.042 165.395 417.421Z" fill="#3B82F6"/>
<path id="section6_3" d="M168.963 445.606C168.484 445.606 168.004 445.427 167.639 445.071C166.904 444.37 166.904 443.227 167.639 442.527L223.29 389.064C224.025 388.357 225.215 388.357 225.944 389.064C226.679 389.765 226.679 390.908 225.944 391.614L170.294 445.071C169.923 445.427 169.45 445.606 168.963 445.606Z" fill="#3B82F6"/>
<path id="section6_4" d="M164.704 439.269C162.222 441.648 162.222 445.513 164.704 447.898C167.179 450.289 171.202 450.283 173.69 447.898C176.172 445.52 176.165 441.654 173.69 439.269C171.208 436.879 167.185 436.885 164.704 439.269Z" fill="#3B82F6"/>
<path id="section6_5" d="M207.281 428.133C206.801 428.133 206.321 427.961 205.957 427.604C205.221 426.898 205.221 425.761 205.957 425.054L230.965 401.03C231.694 400.329 232.883 400.329 233.619 401.03C234.348 401.737 234.348 402.88 233.619 403.58L208.611 427.604C208.24 427.961 207.767 428.133 207.281 428.133Z" fill="#3B82F6"/>
<path id="section6_6" d="M203.015 421.803C200.54 424.181 200.54 428.047 203.015 430.438C205.49 432.816 209.519 432.816 212.001 430.438C214.483 428.053 214.483 424.187 212.001 421.803C209.526 419.424 205.496 419.424 203.015 421.803Z" fill="#3B82F6"/>
<path id="section5" d="M339.662 468.886C338.619 468.886 337.781 468.081 337.781 467.085V413.365C337.781 412.363 338.619 411.558 339.662 411.558C340.698 411.558 341.536 412.363 341.536 413.365V467.085C341.536 468.081 340.698 468.886 339.662 468.886Z" fill="#3B82F6"/>
<path id="section5_2" d="M333.311 466.778C333.311 470.146 336.157 472.881 339.662 472.881C343.167 472.881 346.013 470.14 346.013 466.778C346.013 463.41 343.167 460.675 339.662 460.675C336.157 460.675 333.311 463.41 333.311 466.778Z" fill="#3B82F6"/>
<path id="section5_3" d="M349.249 454.493C348.207 454.493 347.369 453.687 347.369 452.692V413.365C347.369 412.363 348.207 411.558 349.249 411.558C350.285 411.558 351.123 412.363 351.123 413.365V452.692C351.123 453.687 350.285 454.493 349.249 454.493Z" fill="#3B82F6"/>
<path id="section5_4" d="M352.588 447.216C353.304 447.646 353.905 448.187 354.398 448.838C354.89 449.496 355.236 450.221 355.428 451.008C355.626 451.794 355.651 452.587 355.517 453.386C355.383 454.185 355.095 454.929 354.647 455.617C354.206 456.306 353.643 456.883 352.959 457.356C352.281 457.83 351.526 458.162 350.707 458.346C349.889 458.536 349.064 458.561 348.232 458.432C347.401 458.303 346.627 458.026 345.911 457.602C345.194 457.172 344.587 456.631 344.094 455.974C343.602 455.322 343.256 454.597 343.064 453.81C342.873 453.024 342.841 452.231 342.975 451.432C343.109 450.633 343.403 449.889 343.845 449.201C344.286 448.513 344.849 447.929 345.533 447.456C346.218 446.988 346.966 446.657 347.791 446.472C348.61 446.282 349.435 446.257 350.266 446.386C351.098 446.515 351.871 446.792 352.588 447.216Z" fill="#3B82F6"/>
<path id="section5_5" d="M360.749 491.165C359.713 491.165 358.875 490.36 358.875 489.364V412.437C358.875 411.441 359.713 410.636 360.749 410.636C361.785 410.636 362.629 411.441 362.629 412.437V489.364C362.629 490.36 361.785 491.165 360.749 491.165Z" fill="#3B82F6"/>
<path id="Vector_8" d="M366.62 486.721C366.946 487.471 367.106 488.245 367.106 489.057C367.106 489.868 366.946 490.642 366.62 491.392C366.3 492.142 365.84 492.799 365.245 493.371C364.65 493.943 363.966 494.385 363.186 494.692C362.405 495.006 361.6 495.159 360.755 495.159C359.911 495.159 359.105 495.006 358.325 494.692C357.545 494.385 356.86 493.943 356.265 493.371C355.671 492.799 355.21 492.142 354.884 491.392C354.564 490.642 354.404 489.868 354.404 489.057C354.404 488.245 354.564 487.471 354.884 486.721C355.21 485.971 355.671 485.314 356.265 484.742C356.86 484.171 357.545 483.728 358.325 483.421C359.105 483.108 359.911 482.954 360.755 482.954C361.6 482.954 362.405 483.108 363.186 483.421C363.966 483.728 364.65 484.171 365.245 484.742C365.84 485.314 366.3 485.971 366.62 486.721Z" fill="#3B82F6"/>
<path id="section4" d="M481.515 441.838C481.035 441.838 480.556 441.666 480.191 441.31L411.193 375.033C410.464 374.326 410.464 373.183 411.193 372.483C411.928 371.782 413.118 371.782 413.847 372.483L482.845 438.759C483.574 439.466 483.574 440.609 482.845 441.31C482.474 441.666 482.001 441.838 481.515 441.838Z" fill="#3B82F6"/>
<path id="section4_2" d="M476.801 444.137C479.276 446.515 483.299 446.515 485.787 444.137C488.269 441.758 488.263 437.893 485.787 435.502C483.306 433.117 479.283 433.123 476.801 435.502C474.313 437.886 474.32 441.752 476.801 444.137Z" fill="#3B82F6"/>
<path id="section4_3" d="M477.396 424.986C476.91 424.986 476.43 424.814 476.066 424.458L416.949 367.664C416.214 366.964 416.214 365.82 416.949 365.12C417.678 364.413 418.868 364.413 419.597 365.12L478.72 421.913C479.449 422.614 479.449 423.757 478.72 424.458C478.349 424.814 477.876 424.986 477.396 424.986Z" fill="#3B82F6"/>
<path id="section4_4" d="M472.682 427.285C475.158 429.663 479.181 429.663 481.669 427.285C484.15 424.906 484.144 421.041 481.669 418.65C479.187 416.265 475.164 416.272 472.682 418.65C470.194 421.035 470.201 424.9 472.682 427.285Z" fill="#3B82F6"/>
<path id="Vector_9" d="M465.935 393.722C465.455 393.722 464.969 393.55 464.611 393.194L422.699 352.933C421.963 352.232 421.963 351.089 422.699 350.382C423.428 349.681 424.618 349.681 425.353 350.382L467.259 390.643C467.994 391.35 467.994 392.487 467.259 393.194C466.894 393.55 466.414 393.722 465.935 393.722Z" fill="#3B82F6"/>
<path id="Vector_10" d="M461.215 396.021C463.696 398.399 467.719 398.399 470.201 396.021C472.689 393.636 472.682 389.771 470.201 387.386C467.726 385.002 463.703 385.008 461.215 387.386C458.733 389.765 458.739 393.63 461.215 396.021Z" fill="#3B82F6"/>
<path id="section7_7" d="M196.817 221.768C196.338 221.768 195.858 221.596 195.493 221.24L132.641 160.863C131.912 160.162 131.912 159.019 132.641 158.313C133.377 157.612 134.567 157.612 135.296 158.313L198.148 218.689C198.877 219.396 198.877 220.539 198.148 221.24C197.777 221.596 197.303 221.768 196.817 221.768Z" fill="#3B82F6"/>
<path id="section7_8" d="M138.686 155.492C136.21 153.107 132.187 153.107 129.699 155.492C127.224 157.87 127.224 161.736 129.699 164.12C132.181 166.505 136.204 166.505 138.686 164.12C141.167 161.742 141.167 157.876 138.686 155.492Z" fill="#3B82F6"/>
<path id="section7_9" d="M204.486 213.477C204.006 213.477 203.52 213.305 203.156 212.949L142.203 154.398C141.474 153.691 141.474 152.548 142.203 151.847C142.939 151.146 144.128 151.146 144.858 151.847L205.81 210.398C206.545 211.105 206.545 212.248 205.81 212.949C205.445 213.305 204.966 213.477 204.486 213.477Z" fill="#3B82F6"/>
<path id="section7_10" d="M148.247 149.02C145.772 146.642 141.749 146.642 139.261 149.02C136.786 151.405 136.786 155.27 139.261 157.655C141.743 160.033 145.766 160.033 148.247 157.655C150.729 155.276 150.729 151.411 148.247 149.02Z" fill="#3B82F6"/>
<path id="section7_11" d="M212.161 206.109C211.675 206.109 211.195 205.937 210.831 205.58L170.62 166.954C169.891 166.253 169.891 165.11 170.62 164.403C171.355 163.702 172.545 163.702 173.274 164.403L213.485 203.03C214.214 203.736 214.214 204.873 213.485 205.58C213.114 205.937 212.641 206.109 212.161 206.109Z" fill="#3B82F6"/>
<path id="section7_12" d="M176.67 161.588C174.189 159.204 170.166 159.204 167.684 161.588C165.196 163.967 165.203 167.832 167.684 170.217C170.159 172.602 174.182 172.602 176.67 170.217C179.152 167.839 179.146 163.973 176.67 161.588Z" fill="#3B82F6"/>
<path id="section7_13" d="M170.537 164.366C170.255 164.366 169.968 164.305 169.699 164.169C168.772 163.727 168.394 162.645 168.861 161.754L178.301 143.612C178.762 142.721 179.894 142.358 180.815 142.807C181.742 143.249 182.12 144.331 181.659 145.222L172.213 163.364C171.88 163.997 171.221 164.366 170.53 164.366H170.537Z" fill="#3B82F6"/>
<path id="section7_14" d="M185.516 147.416C187.089 144.404 185.81 140.735 182.676 139.23C179.542 137.718 175.724 138.947 174.15 141.958C172.583 144.97 173.856 148.639 176.997 150.145C180.131 151.657 183.949 150.427 185.516 147.416Z" fill="#3B82F6"/>
<path id="section7_15" d="M142.433 150.888C142.158 150.888 141.877 150.833 141.615 150.71C140.687 150.274 140.297 149.198 140.751 148.301L150.889 128.333C151.349 127.442 152.469 127.067 153.402 127.503C154.336 127.946 154.72 129.021 154.266 129.919L144.128 149.88C143.802 150.526 143.131 150.894 142.433 150.894V150.888Z" fill="#3B82F6"/>
<path id="section7_16" d="M158.142 132.076C159.683 129.046 158.378 125.389 155.219 123.914C152.066 122.439 148.26 123.693 146.732 126.723C145.19 129.753 146.501 133.41 149.654 134.885C152.808 136.353 156.613 135.106 158.142 132.076Z" fill="#3B82F6"/>
<path id="section7_17" d="M128.42 161.269C128.35 161.269 128.273 161.269 128.203 161.256L100.323 158.226C99.2936 158.11 98.5581 157.219 98.6732 156.229C98.7947 155.24 99.7221 154.527 100.752 154.643L128.631 157.673C129.661 157.784 130.403 158.675 130.281 159.671C130.179 160.586 129.36 161.269 128.42 161.269Z" fill="#3B82F6"/>
<path id="Vector_11" d="M101.571 150.397C98.0848 150.022 94.9381 152.425 94.5415 155.78C94.1514 159.13 96.6522 162.154 100.144 162.529C103.63 162.91 106.777 160.507 107.173 157.151C107.57 153.795 105.063 150.778 101.577 150.397H101.571Z" fill="#3B82F6"/>
<path id="section7_18" d="M92.5716 271.801C92.0791 271.801 91.5803 271.617 91.2093 271.242C90.493 270.517 90.5249 269.374 91.2797 268.692L111.823 249.965C112.571 249.277 113.761 249.308 114.477 250.033C115.187 250.752 115.155 251.895 114.407 252.577L93.8636 271.304C93.499 271.636 93.0385 271.801 92.5716 271.801Z" fill="#3B82F6"/>
<path id="section7_19" d="M117.266 255.908C119.811 253.591 119.92 249.732 117.503 247.286C115.091 244.834 111.068 244.735 108.523 247.052C105.977 249.375 105.869 253.235 108.286 255.681C110.704 258.127 114.72 258.231 117.266 255.908Z" fill="#3B82F6"/>
<path id="section7_20" d="M57.345 297.145C56.7182 297.145 56.1042 296.844 55.7461 296.297C55.196 295.449 55.4647 294.336 56.3409 293.814L76.7884 281.541C77.6646 281.012 78.8286 281.27 79.3723 282.112C79.9159 282.954 79.6537 284.073 78.7775 284.595L58.3364 296.868C58.0294 297.059 57.684 297.145 57.3386 297.145H57.345Z" fill="#3B82F6"/>
<path id="Vector_12" d="M54.2495 290.003C51.2754 291.792 50.3672 295.553 52.2284 298.417C54.0832 301.275 58.0038 302.141 60.9779 300.359C63.9519 298.571 64.8601 294.809 62.999 291.946C61.1442 289.082 57.2235 288.221 54.2495 290.003Z" fill="#3B82F6"/>
<path id="section7_21" d="M114.951 317.072C114.503 317.072 114.042 316.918 113.684 316.598L95.7695 300.865C95.0084 300.189 94.9508 299.052 95.6544 298.315C96.3515 297.583 97.5412 297.528 98.3023 298.204L116.223 313.937C116.984 314.607 117.042 315.75 116.339 316.482C115.974 316.875 115.462 317.072 114.957 317.072H114.951Z" fill="#3B82F6"/>
<path id="section7_22" d="M110.429 319.567C113.019 321.841 117.036 321.669 119.402 319.186C121.769 316.697 121.583 312.837 118.999 310.563C116.409 308.289 112.392 308.461 110.026 310.944C107.659 313.427 107.845 317.293 110.429 319.567Z" fill="#3B82F6"/>
<path id="section6_7" d="M168.567 424.728C167.71 424.728 166.93 424.157 166.738 423.321L162.312 404.422C162.088 403.451 162.721 402.486 163.732 402.271C164.749 402.056 165.746 402.659 165.977 403.636L170.402 422.534C170.626 423.511 170 424.47 168.983 424.691C168.848 424.716 168.708 424.728 168.573 424.728H168.567Z" fill="#3B82F6"/>
<path id="Vector_13" d="M170.402 402.984C169.635 399.696 166.239 397.631 162.811 398.369C159.389 399.106 157.24 402.376 158.007 405.664C158.775 408.952 162.177 411.017 165.599 410.279C169.021 409.536 171.176 406.272 170.402 402.984Z" fill="#3B82F6"/>
<path id="section6_8" d="M182.081 454.824C181.838 454.824 181.589 454.775 181.346 454.683L166.757 448.672C165.804 448.285 165.363 447.222 165.766 446.306C166.175 445.391 167.275 444.966 168.234 445.354L182.817 451.364C183.77 451.751 184.217 452.815 183.808 453.73C183.501 454.419 182.817 454.824 182.081 454.824Z" fill="#3B82F6"/>
<path id="section6_9" d="M179.293 458.512C182.516 459.839 186.251 458.401 187.633 455.304C189.014 452.212 187.518 448.623 184.294 447.29C181.077 445.962 177.336 447.4 175.954 450.498C174.573 453.595 176.069 457.184 179.293 458.512Z" fill="#3B82F6"/>
<path id="section6_10" d="M224.294 445.716C223.808 445.716 223.328 445.544 222.963 445.188L204.224 427.18C203.488 426.48 203.488 425.337 204.224 424.636C204.953 423.929 206.142 423.929 206.878 424.636L225.618 442.637C226.353 443.344 226.353 444.487 225.618 445.188C225.247 445.544 224.773 445.716 224.294 445.716Z" fill="#3B82F6"/>
<path id="section6_11" d="M219.574 448.015C222.049 450.393 226.078 450.393 228.56 448.015C231.041 445.63 231.041 441.764 228.56 439.38C226.085 436.995 222.055 437.001 219.574 439.38C217.092 441.764 217.098 445.624 219.574 448.015Z" fill="#3B82F6"/>
<path id="section5_6" d="M317.264 469.949C316.253 469.949 315.422 469.187 315.383 468.21C315.345 467.214 316.164 466.379 317.193 466.348L338.485 465.635C339.547 465.598 340.391 466.379 340.423 467.374C340.461 468.37 339.649 469.206 338.613 469.236L317.328 469.949C317.328 469.949 317.283 469.949 317.257 469.949H317.264Z" fill="#3B82F6"/>
<path id="section5_7" d="M317.36 462.033C313.855 462.15 311.111 464.977 311.232 468.345C311.36 471.713 314.302 474.35 317.807 474.233C321.312 474.11 324.056 471.283 323.934 467.921C323.807 464.553 320.864 461.911 317.36 462.033Z" fill="#3B82F6"/>
<path id="section5_8" d="M361.229 494.908C360.627 494.908 360.039 494.631 359.681 494.115C359.099 493.291 359.316 492.173 360.173 491.613L379.15 479.217C380.007 478.658 381.177 478.867 381.759 479.69C382.341 480.514 382.117 481.639 381.26 482.198L362.29 494.594C361.964 494.803 361.6 494.908 361.235 494.908H361.229Z" fill="#3B82F6"/>
<path id="section5_9" d="M383.518 485.922C386.422 484.029 387.17 480.231 385.2 477.447C383.23 474.657 379.271 473.938 376.374 475.831C373.47 477.724 372.722 481.522 374.692 484.306C376.662 487.096 380.621 487.815 383.518 485.922Z" fill="#3B82F6"/>
<path id="section4_5" d="M470.521 392.573C469.919 392.573 469.337 392.303 468.979 391.793C468.391 390.969 468.608 389.851 469.459 389.285L487.495 377.375C488.346 376.809 489.516 377.024 490.105 377.842C490.693 378.665 490.476 379.784 489.619 380.343L471.589 392.254C471.262 392.469 470.891 392.573 470.521 392.573Z" fill="#3B82F6"/>
<path id="section4_6" d="M491.895 384.061C494.786 382.15 495.516 378.352 493.526 375.574C491.537 372.796 487.578 372.089 484.687 374.001C481.796 375.918 481.067 379.716 483.056 382.494C485.046 385.272 489.005 385.973 491.895 384.061Z" fill="#3B82F6"/>
<path id="section4_7" d="M481.988 423.604C481.553 423.604 481.119 423.462 480.767 423.173C479.98 422.522 479.891 421.385 480.562 420.629L493.891 405.688C494.563 404.932 495.746 404.853 496.539 405.492C497.326 406.143 497.415 407.28 496.744 408.036L483.415 422.977C483.044 423.388 482.519 423.604 481.988 423.604Z" fill="#3B82F6"/>
<path id="section4_8" d="M499.929 411.066C502.212 408.503 501.905 404.65 499.238 402.462C496.577 400.268 492.561 400.563 490.284 403.126C488 405.682 488.314 409.536 490.974 411.73C493.642 413.924 497.652 413.629 499.929 411.066Z" fill="#3B82F6"/>
<path id="section4_9" d="M468.57 457.664C468.065 457.664 467.559 457.467 467.195 457.086C466.485 456.361 466.53 455.218 467.291 454.536L482.999 440.523C483.76 439.841 484.95 439.884 485.653 440.621C486.363 441.347 486.318 442.49 485.551 443.166L469.849 457.184C469.484 457.504 469.024 457.664 468.57 457.664Z" fill="#3B82F6"/>
<path id="Vector_14" d="M464.477 451.18C461.905 453.472 461.752 457.338 464.144 459.809C466.536 462.279 470.553 462.427 473.124 460.128C475.695 457.836 475.848 453.97 473.456 451.499C471.071 449.029 467.048 448.888 464.477 451.18Z" fill="#3B82F6"/>
</g>
</svg>
