<svg xmlns="http://www.w3.org/2000/svg" xmlns:xlink="http://www.w3.org/1999/xlink" width="500" zoomAndPan="magnify" viewBox="0 0 375 374.999991" height="500" preserveAspectRatio="xMidYMid meet" version="1.0"><defs><clipPath id="7af31de5da"><path d="M 17.898438 29.15625 L 356.898438 29.15625 L 356.898438 304.40625 L 17.898438 304.40625 Z M 17.898438 29.15625 " clip-rule="nonzero"/></clipPath><clipPath id="2be6d1daea"><path d="M 315.960938 180.734375 C 315.960938 169.414062 325.128906 160.304688 336.457031 160.304688 C 347.785156 160.304688 356.898438 169.464844 356.898438 180.734375 C 356.898438 192.054688 347.730469 201.164062 336.457031 201.164062 C 332.925781 201.164062 329.554688 200.269531 326.65625 198.6875 L 311.902344 220.382812 C 315.382812 223.4375 317.59375 227.910156 317.59375 232.964844 C 317.59375 242.179688 310.113281 249.660156 300.890625 249.660156 C 291.671875 249.660156 284.1875 242.179688 284.1875 232.964844 C 284.1875 226.648438 287.71875 221.121094 292.9375 218.328125 L 288.773438 207.796875 C 287.824219 208.007812 286.824219 208.113281 285.824219 208.113281 C 278.5 208.113281 272.597656 202.164062 272.597656 194.898438 C 272.597656 187.578125 278.550781 181.628906 285.824219 181.628906 C 287.035156 181.628906 288.246094 181.785156 289.351562 182.101562 L 297.941406 163.042969 C 295.832031 161.410156 294.464844 158.882812 294.464844 156.039062 C 294.464844 151.140625 298.414062 147.191406 303.316406 147.191406 C 305.476562 147.191406 307.425781 147.929688 308.953125 149.246094 L 324.339844 137.554688 C 323.230469 135.554688 322.597656 133.1875 322.597656 130.710938 C 322.597656 126.605469 324.390625 122.867188 327.183594 120.285156 L 317.699219 106.332031 C 315.90625 107.175781 313.90625 107.648438 311.796875 107.648438 C 306.84375 107.648438 302.523438 105.015625 300.152344 101.121094 L 285.71875 107.175781 C 285.71875 107.386719 285.769531 107.59375 285.769531 107.753906 C 285.769531 111.070312 283.347656 113.808594 280.183594 114.335938 L 278.234375 128.339844 C 283.082031 129.867188 286.558594 134.398438 286.558594 139.714844 C 286.558594 146.296875 281.1875 151.667969 274.601562 151.667969 C 270.175781 151.667969 266.328125 149.246094 264.21875 145.664062 L 247.097656 151.984375 C 247.097656 152.035156 247.097656 152.089844 247.097656 152.195312 C 247.097656 155.722656 244.25 158.566406 240.722656 158.566406 C 240.351562 158.566406 239.929688 158.511719 239.5625 158.460938 L 230.867188 174.257812 C 231.921875 175.203125 232.816406 176.363281 233.398438 177.679688 L 257.421875 172.625 C 257.792969 169.464844 260.480469 166.992188 263.746094 166.992188 C 267.277344 166.992188 270.121094 169.832031 270.121094 173.363281 C 270.121094 176.625 267.644531 179.3125 264.484375 179.679688 L 257.421875 213.378906 C 264.90625 215.800781 270.277344 222.804688 270.277344 231.070312 C 270.277344 241.339844 261.953125 249.710938 251.628906 249.710938 C 251.3125 249.710938 250.996094 249.710938 250.679688 249.710938 L 247.886719 266.980469 C 250.414062 268.140625 252.207031 270.71875 252.207031 273.722656 C 252.207031 277.089844 249.992188 279.882812 246.9375 280.828125 L 247.203125 293.886719 C 249.152344 294.625 250.574219 296.574219 250.574219 298.785156 C 250.574219 301.679688 248.203125 304.050781 245.304688 304.050781 C 242.40625 304.050781 240.035156 301.679688 240.035156 298.785156 C 240.035156 298.257812 240.140625 297.730469 240.300781 297.207031 L 231.078125 289.519531 C 229.917969 290.308594 228.496094 290.78125 226.917969 290.78125 C 222.859375 290.78125 219.59375 287.515625 219.59375 283.460938 C 219.59375 280.566406 221.277344 278.09375 223.703125 276.882812 L 222.121094 268.140625 C 222.015625 268.140625 221.859375 268.140625 221.753906 268.140625 C 214.375 268.140625 208.371094 262.136719 208.371094 254.765625 C 208.371094 247.394531 214.375 241.390625 221.753906 241.390625 C 225.28125 241.390625 228.445312 242.761719 230.816406 244.972656 L 235.925781 240.917969 C 234.082031 238.023438 233.027344 234.652344 233.027344 230.964844 C 233.027344 227.4375 234.03125 224.121094 235.769531 221.277344 L 222.703125 211.273438 C 221.699219 211.957031 220.488281 212.378906 219.171875 212.378906 C 217.75 212.378906 216.429688 211.90625 215.378906 211.113281 L 207.105469 216.855469 C 208.582031 219.539062 209.371094 222.59375 209.371094 225.859375 C 209.371094 236.285156 200.941406 244.707031 190.507812 244.707031 C 181.65625 244.707031 174.28125 238.652344 172.226562 230.4375 L 158.105469 232.386719 C 157.945312 239.074219 152.46875 244.445312 145.722656 244.445312 C 138.875 244.445312 133.339844 238.917969 133.339844 232.070312 C 133.339844 225.226562 138.875 219.699219 145.722656 219.699219 C 146.988281 219.699219 148.199219 219.910156 149.304688 220.222656 L 164.375 189.738281 C 160.527344 187.15625 157.894531 182.945312 157.417969 178.101562 L 144.984375 177.679688 C 144.089844 179.996094 141.875 181.628906 139.242188 181.628906 C 138.558594 181.628906 137.925781 181.523438 137.292969 181.3125 L 127.335938 194.210938 C 130.441406 197.265625 132.339844 201.480469 132.339844 206.164062 C 132.339844 215.433594 124.804688 222.960938 115.53125 222.960938 C 107.734375 222.960938 101.148438 217.589844 99.25 210.378906 L 87.710938 211.90625 C 87.5 218.488281 82.074219 223.804688 75.4375 223.804688 C 68.640625 223.804688 63.160156 218.328125 63.160156 211.535156 C 63.160156 205.113281 68.113281 199.847656 74.433594 199.320312 L 75.542969 185.839844 C 73.328125 184.894531 71.800781 182.679688 71.800781 180.101562 C 71.800781 176.679688 74.59375 173.835938 78.070312 173.835938 C 78.859375 173.835938 79.546875 173.992188 80.230469 174.203125 L 103.78125 145.242188 C 103.203125 144.296875 102.835938 143.136719 102.835938 141.925781 C 102.835938 140.242188 103.519531 138.714844 104.574219 137.609375 L 100.9375 130.554688 C 99.09375 131.238281 97.144531 131.605469 95.089844 131.605469 C 92.136719 131.605469 89.347656 130.816406 86.976562 129.5 L 72.800781 149.140625 C 74.277344 150.773438 75.171875 152.984375 75.171875 155.40625 C 75.171875 160.566406 70.957031 164.777344 65.792969 164.777344 C 64.738281 164.777344 63.6875 164.621094 62.738281 164.253906 L 47.933594 188.367188 C 51.304688 191.105469 53.410156 195.265625 53.410156 199.953125 C 53.410156 208.21875 46.71875 214.90625 38.449219 214.90625 C 30.175781 214.90625 23.484375 208.21875 23.484375 199.953125 C 23.484375 193.210938 27.964844 187.527344 34.074219 185.628906 L 32.917969 178.523438 C 32.8125 178.523438 32.757812 178.523438 32.652344 178.523438 C 24.960938 178.523438 18.742188 172.308594 18.742188 164.621094 C 18.742188 156.984375 24.90625 150.773438 32.546875 150.71875 L 33.390625 144.558594 C 24.484375 142.402344 17.847656 134.34375 17.847656 124.761719 C 17.847656 113.546875 26.960938 104.4375 38.183594 104.4375 C 47.511719 104.4375 55.414062 110.703125 57.785156 119.285156 L 78.28125 115.652344 C 78.28125 115.335938 78.28125 115.074219 78.28125 114.757812 C 78.28125 111.914062 79.019531 109.226562 80.230469 106.859375 L 65.109375 96.273438 C 63.421875 97.855469 61.15625 98.800781 58.679688 98.800781 C 53.464844 98.800781 49.195312 94.539062 49.195312 89.324219 C 49.195312 84.113281 53.464844 79.847656 58.679688 79.847656 C 63.898438 79.847656 68.164062 84.113281 68.164062 89.324219 C 68.164062 90.640625 67.902344 91.851562 67.425781 92.957031 L 82.550781 103.542969 C 84.710938 101.121094 87.605469 99.328125 90.820312 98.488281 L 90.769531 83.164062 C 85.078125 82.214844 80.757812 77.320312 80.757812 71.371094 C 80.757812 64.789062 86.132812 59.417969 92.71875 59.417969 C 96.617188 59.417969 100.042969 61.257812 102.203125 64.101562 L 121.328125 54.097656 C 120.855469 52.675781 120.589844 51.203125 120.589844 49.621094 C 120.589844 42.09375 126.703125 35.933594 134.289062 35.933594 C 141.824219 35.933594 147.988281 42.039062 147.988281 49.621094 C 147.988281 54.625 145.300781 59.046875 141.246094 61.417969 L 147.566406 77.003906 C 148.566406 76.792969 149.570312 76.632812 150.675781 76.632812 C 153.152344 76.632812 155.523438 77.320312 157.523438 78.53125 L 171.855469 61.152344 C 168.589844 57.785156 166.535156 53.203125 166.535156 48.148438 C 166.535156 37.878906 174.859375 29.507812 185.1875 29.507812 C 195.460938 29.507812 203.839844 37.828125 203.839844 48.148438 C 203.839844 52.730469 202.152344 56.941406 199.414062 60.152344 L 213.640625 75.109375 C 214.480469 74.6875 215.429688 74.476562 216.429688 74.476562 C 216.695312 74.476562 216.957031 74.476562 217.167969 74.527344 L 224.757812 58.152344 C 221.648438 55.992188 219.59375 52.414062 219.59375 48.304688 C 219.59375 41.722656 224.96875 36.355469 231.554688 36.355469 C 238.140625 36.355469 243.511719 41.722656 243.511719 48.304688 C 243.511719 49.78125 243.25 51.203125 242.777344 52.464844 L 254.839844 59.46875 C 257.84375 55.519531 262.640625 52.941406 267.960938 52.941406 C 277.074219 52.941406 284.453125 60.3125 284.453125 69.421875 C 284.453125 71.632812 284.03125 73.738281 283.242188 75.632812 L 301.050781 85.585938 C 303.527344 82.375 307.425781 80.269531 311.851562 80.269531 C 319.386719 80.269531 325.496094 86.375 325.496094 93.90625 C 325.496094 97.855469 323.8125 101.433594 321.125 103.910156 L 330.609375 117.863281 C 332.453125 116.96875 334.558594 116.441406 336.773438 116.441406 C 344.570312 116.441406 350.894531 122.761719 350.894531 130.554688 C 350.894531 138.347656 344.570312 144.664062 336.773438 144.664062 C 332.925781 144.664062 329.394531 143.136719 326.867188 140.609375 L 311.480469 152.300781 C 311.957031 153.40625 312.21875 154.617188 312.21875 155.878906 C 312.21875 160.777344 308.269531 164.726562 303.367188 164.726562 C 302.789062 164.726562 302.207031 164.671875 301.683594 164.566406 L 293.09375 183.628906 C 296.730469 186 299.152344 190.105469 299.152344 194.738281 C 299.152344 199.582031 296.519531 203.847656 292.621094 206.164062 L 296.78125 216.695312 C 298.152344 216.328125 299.523438 216.167969 300.996094 216.167969 C 303.738281 216.167969 306.371094 216.855469 308.636719 218.011719 L 323.390625 196.320312 C 318.910156 192.582031 316.066406 186.945312 316.066406 180.628906 Z M 94.878906 98.066406 L 94.824219 83.214844 C 100.464844 82.269531 104.730469 77.320312 104.730469 71.421875 C 104.730469 70.15625 104.519531 68.894531 104.152344 67.734375 L 123.277344 57.730469 C 125.753906 61.152344 129.8125 63.367188 134.34375 63.367188 C 135.449219 63.367188 136.503906 63.261719 137.554688 62.996094 L 143.878906 78.582031 C 139.980469 80.898438 137.34375 85.164062 137.34375 90.0625 C 137.34375 95.960938 141.191406 100.960938 146.511719 102.75 L 143.667969 119.601562 C 143.300781 119.601562 142.929688 119.546875 142.507812 119.546875 C 132.078125 119.546875 123.644531 127.972656 123.644531 138.398438 C 123.644531 148.824219 132.078125 157.25 142.507812 157.25 C 152.414062 157.25 160.527344 149.613281 161.320312 139.925781 L 172.226562 139.609375 C 173.121094 141.980469 175.386719 143.664062 178.074219 143.664062 C 179.972656 143.664062 181.65625 142.820312 182.816406 141.453125 L 197.09375 147.140625 C 196.9375 147.980469 196.832031 148.824219 196.832031 149.667969 C 196.832031 156.300781 202.257812 161.726562 208.898438 161.726562 C 215.535156 161.726562 220.960938 156.300781 220.960938 149.667969 C 220.960938 146.769531 219.910156 144.085938 218.222656 141.980469 L 233.34375 124.496094 C 235.980469 126.234375 239.140625 127.289062 242.511719 127.289062 C 251.628906 127.289062 259.003906 119.917969 259.003906 110.808594 C 259.003906 101.699219 251.628906 94.328125 242.511719 94.328125 C 239.085938 94.328125 235.875 95.378906 233.238281 97.171875 L 221.964844 84.269531 C 222.542969 83.320312 222.859375 82.164062 222.859375 80.953125 C 222.859375 79.109375 222.070312 77.425781 220.804688 76.214844 L 228.339844 59.835938 C 229.339844 60.101562 230.394531 60.257812 231.449219 60.257812 C 235.136719 60.257812 238.457031 58.574219 240.617188 55.941406 L 252.679688 62.945312 C 251.839844 64.945312 251.363281 67.105469 251.363281 69.421875 C 251.363281 78.53125 258.742188 85.902344 267.855469 85.902344 C 268.75 85.902344 269.648438 85.847656 270.488281 85.691406 L 275.230469 102.066406 C 273.441406 103.277344 272.28125 105.277344 272.28125 107.59375 C 272.28125 110.28125 273.863281 112.546875 276.074219 113.652344 L 274.125 127.65625 C 267.699219 127.867188 262.535156 133.132812 262.535156 139.609375 C 262.535156 140.347656 262.585938 141.085938 262.746094 141.820312 L 245.621094 148.140625 C 244.460938 146.664062 242.671875 145.769531 240.667969 145.769531 C 237.136719 145.769531 234.292969 148.613281 234.292969 152.140625 C 234.292969 153.828125 234.925781 155.300781 235.980469 156.460938 L 227.285156 172.253906 C 226.390625 171.992188 225.441406 171.835938 224.492188 171.835938 C 219.117188 171.835938 214.796875 176.152344 214.796875 181.523438 C 214.796875 186.894531 219.117188 191.210938 224.492188 191.210938 C 229.867188 191.210938 234.1875 186.894531 234.1875 181.523438 L 258.214844 176.414062 C 258.792969 177.363281 259.53125 178.152344 260.480469 178.679688 L 253.417969 212.378906 C 252.839844 212.324219 252.207031 212.273438 251.574219 212.273438 C 246.304688 212.273438 241.511719 214.484375 238.085938 218.011719 L 225.019531 208.007812 C 225.230469 207.375 225.386719 206.640625 225.386719 205.953125 C 225.386719 202.425781 222.542969 199.582031 219.011719 199.582031 C 215.484375 199.582031 212.636719 202.425781 212.636719 205.953125 C 212.636719 206.585938 212.742188 207.164062 212.902344 207.746094 L 204.628906 213.484375 C 201.152344 209.484375 196.039062 206.957031 190.351562 206.957031 C 179.917969 206.957031 171.488281 215.378906 171.488281 225.804688 C 171.488281 226.015625 171.488281 226.226562 171.488281 226.386719 L 157.367188 228.332031 C 156.578125 225.753906 154.890625 223.488281 152.730469 221.960938 L 167.800781 191.476562 C 169.378906 192 171.117188 192.316406 172.910156 192.316406 C 181.605469 192.316406 188.664062 185.261719 188.664062 176.574219 C 188.664062 167.886719 181.605469 160.882812 172.910156 160.882812 C 165.113281 160.882812 158.632812 166.570312 157.367188 174.046875 L 144.933594 173.625 C 144.140625 171.097656 141.824219 169.308594 139.085938 169.308594 C 135.710938 169.308594 132.917969 172.046875 132.917969 175.46875 C 132.917969 176.730469 133.289062 177.835938 133.921875 178.835938 L 123.960938 191.738281 C 121.433594 190.210938 118.484375 189.367188 115.375 189.367188 C 106.101562 189.367188 98.566406 196.898438 98.566406 206.164062 C 98.566406 206.21875 98.566406 206.324219 98.566406 206.375 L 87.027344 207.902344 C 85.761719 203.847656 82.445312 200.636719 78.28125 199.582031 L 79.386719 186.105469 C 82.128906 185.417969 84.128906 182.945312 84.128906 180.046875 C 84.128906 178.835938 83.761719 177.679688 83.179688 176.730469 L 106.734375 147.769531 C 107.417969 148.035156 108.15625 148.140625 108.894531 148.140625 C 112.371094 148.140625 115.164062 145.347656 115.164062 141.875 C 115.164062 138.453125 112.371094 135.609375 108.894531 135.609375 C 108.578125 135.609375 108.261719 135.609375 107.996094 135.660156 L 104.363281 128.605469 C 108.789062 125.605469 111.738281 120.496094 111.738281 114.703125 C 111.738281 105.4375 104.203125 97.90625 94.929688 97.90625 C 94.824219 97.90625 94.773438 97.90625 94.71875 97.90625 Z M 147.621094 120.285156 L 150.464844 103.4375 C 150.519531 103.4375 150.621094 103.4375 150.675781 103.4375 C 155.523438 103.4375 159.738281 100.855469 162.109375 97.011719 L 181.605469 105.066406 C 181.339844 106.175781 181.183594 107.28125 181.183594 108.492188 C 181.183594 116.179688 187.398438 122.390625 195.09375 122.390625 C 202.785156 122.390625 209.003906 116.179688 209.003906 108.492188 C 209.003906 104.753906 207.527344 101.382812 205.15625 98.855469 L 214.269531 87.113281 C 214.957031 87.375 215.695312 87.480469 216.429688 87.480469 C 217.328125 87.480469 218.171875 87.324219 218.960938 86.953125 L 230.234375 99.855469 C 227.601562 102.75 226.019531 106.648438 226.019531 110.859375 C 226.019531 115.125 227.652344 118.96875 230.289062 121.917969 L 215.167969 139.398438 C 213.324219 138.292969 211.214844 137.660156 208.898438 137.660156 C 204.523438 137.660156 200.730469 139.976562 198.570312 143.453125 L 184.292969 137.765625 C 184.292969 137.660156 184.292969 137.554688 184.292969 137.449219 C 184.292969 133.976562 181.5 131.183594 178.019531 131.183594 C 175.230469 131.183594 172.859375 133.027344 172.066406 135.609375 L 161.160156 135.925781 C 160.160156 128.394531 154.734375 122.339844 147.566406 120.285156 Z M 196.460938 62.996094 L 210.6875 77.949219 C 210.214844 78.847656 209.898438 79.898438 209.898438 81.003906 C 209.898438 82.320312 210.320312 83.585938 211.003906 84.636719 L 201.890625 96.378906 C 199.886719 95.222656 197.515625 94.589844 195.039062 94.589844 C 189.980469 94.589844 185.554688 97.328125 183.132812 101.328125 L 163.636719 93.222656 C 163.902344 92.21875 164.007812 91.113281 164.007812 90.007812 C 164.007812 86.585938 162.6875 83.480469 160.582031 81.109375 L 174.914062 63.734375 C 177.863281 65.683594 181.339844 66.789062 185.132812 66.789062 C 189.402344 66.789062 193.300781 65.367188 196.460938 62.945312 Z M 279.132812 101.066406 L 274.390625 84.636719 C 277.128906 83.480469 279.445312 81.585938 281.1875 79.214844 L 298.996094 89.167969 C 298.414062 90.640625 298.097656 92.273438 298.097656 93.957031 C 298.097656 95.117188 298.257812 96.222656 298.519531 97.328125 L 284.082031 103.382812 C 282.871094 101.960938 281.132812 101.066406 279.132812 101.015625 Z M 246.78125 248.972656 L 243.988281 266.246094 C 240.300781 266.664062 237.402344 269.824219 237.402344 273.617188 C 237.402344 277.089844 239.773438 279.988281 242.988281 280.828125 L 243.25 293.886719 C 243.144531 293.941406 242.988281 293.992188 242.882812 294.046875 L 233.660156 286.359375 C 234.082031 285.464844 234.292969 284.464844 234.292969 283.410156 C 234.292969 279.617188 231.394531 276.511719 227.707031 276.144531 L 226.125 267.402344 C 231.394531 265.613281 235.1875 260.609375 235.1875 254.765625 C 235.1875 252.34375 234.554688 250.078125 233.398438 248.132812 L 238.507812 244.078125 C 240.773438 246.339844 243.617188 248.078125 246.832031 248.921875 Z M 83.707031 127.183594 L 69.535156 146.824219 C 68.375 146.351562 67.109375 146.035156 65.792969 146.035156 C 60.628906 146.035156 56.414062 150.246094 56.414062 155.40625 C 56.414062 158.039062 57.523438 160.460938 59.3125 162.144531 L 44.507812 186.261719 C 42.664062 185.417969 40.609375 185 38.449219 185 C 38.289062 185 38.183594 185 38.027344 185 L 36.867188 177.890625 C 42.503906 176.097656 46.5625 170.835938 46.5625 164.671875 C 46.5625 158.355469 42.347656 153.035156 36.550781 151.351562 L 37.394531 145.191406 C 37.65625 145.191406 37.921875 145.191406 38.238281 145.191406 C 49.460938 145.191406 58.574219 136.082031 58.574219 124.867188 C 58.574219 124.339844 58.574219 123.867188 58.523438 123.339844 L 79.019531 119.757812 C 79.914062 122.65625 81.546875 125.234375 83.707031 127.234375 Z M 99.09375 168.148438 C 99.09375 161.566406 104.46875 156.195312 111.054688 156.195312 C 117.640625 156.195312 123.015625 161.566406 123.015625 168.148438 C 123.015625 174.730469 117.640625 180.101562 111.054688 180.101562 C 104.46875 180.101562 99.09375 174.730469 99.09375 168.148438 Z M 111.898438 87.957031 C 111.898438 84.480469 114.6875 81.691406 118.167969 81.691406 C 121.644531 81.691406 124.4375 84.480469 124.4375 87.957031 C 124.4375 91.378906 121.644531 94.222656 118.167969 94.222656 C 114.742188 94.222656 111.898438 91.429688 111.898438 87.957031 Z M 111.898438 87.957031 " clip-rule="evenodd"/></clipPath></defs><g clip-path="url(#7af31de5da)"><g clip-path="url(#2be6d1daea)"><path fill="#ffffff" d="M 17.898438 29.507812 L 17.898438 304.050781 L 356.898438 304.050781 L 356.898438 29.507812 Z M 17.898438 29.507812 " fill-opacity="1" fill-rule="nonzero"/></g></g></svg>